<svg width="19" height="22" viewBox="0 0 19 22" fill="none" xmlns="http://www.w3.org/2000/svg">
<path fill-rule="evenodd" clip-rule="evenodd" d="M15.5 4.8963H13.712C13.5271 2.69333 11.6966 1 9.5 1C7.30342 1 5.47289 2.69333 5.288 4.8963H3.5C2.11929 4.8963 1 6.02284 1 7.4125V18.4838C1 19.8735 2.11929 21 3.5 21H15.5C16.8807 21 18 19.8735 18 18.4838V7.4125C18 6.02284 16.8807 4.8963 15.5 4.8963ZM9.5 2.00267C11.1448 2.0078 12.5254 3.25149 12.712 4.8963H6.288C6.47464 3.25149 7.85517 2.0078 9.5 2.00267ZM15.5 19.9935C16.3284 19.9935 17 19.3176 17 18.4838V7.4125C17 6.57871 16.3284 5.90278 15.5 5.90278H3.5C2.67157 5.90278 2 6.57871 2 7.4125V18.4838C2 19.3176 2.67157 19.9935 3.5 19.9935H15.5Z" fill="white"/>
<path d="M13.712 4.8963L13.5625 4.90885L13.5741 5.0463H13.712V4.8963ZM5.288 4.8963V5.0463H5.42594L5.43747 4.90885L5.288 4.8963ZM12.712 4.8963V5.0463H12.88L12.861 4.87939L12.712 4.8963ZM9.5 2.00267L9.50047 1.85267L9.49953 1.85267L9.5 2.00267ZM6.288 4.8963L6.13896 4.87939L6.12002 5.0463H6.288V4.8963ZM13.712 5.0463H15.5V4.7463H13.712V5.0463ZM9.5 1.15C11.6178 1.15 13.3841 2.78278 13.5625 4.90885L13.8615 4.88376C13.6701 2.60388 11.7754 0.85 9.5 0.85V1.15ZM5.43747 4.90885C5.61591 2.78278 7.3822 1.15 9.5 1.15V0.85C7.22464 0.85 5.32987 2.60388 5.13853 4.88376L5.43747 4.90885ZM3.5 5.0463H5.288V4.7463H3.5V5.0463ZM1.15 7.4125C1.15 6.10477 2.20304 5.0463 3.5 5.0463V4.7463C2.03553 4.7463 0.85 5.94092 0.85 7.4125H1.15ZM1.15 18.4838V7.4125H0.85V18.4838H1.15ZM3.5 20.85C2.20304 20.85 1.15 19.7915 1.15 18.4838H0.85C0.85 19.9554 2.03553 21.15 3.5 21.15V20.85ZM15.5 20.85H3.5V21.15H15.5V20.85ZM17.85 18.4838C17.85 19.7915 16.797 20.85 15.5 20.85V21.15C16.9645 21.15 18.15 19.9554 18.15 18.4838H17.85ZM17.85 7.4125V18.4838H18.15V7.4125H17.85ZM15.5 5.0463C16.797 5.0463 17.85 6.10477 17.85 7.4125H18.15C18.15 5.94092 16.9645 4.7463 15.5 4.7463V5.0463ZM12.861 4.87939C12.6659 3.1597 11.2222 1.85804 9.50047 1.85267L9.49953 2.15267C11.0675 2.15756 12.3848 3.34328 12.563 4.91321L12.861 4.87939ZM6.288 5.0463H12.712V4.7463H6.288V5.0463ZM9.49953 1.85267C7.77782 1.85804 6.33409 3.1597 6.13896 4.87939L6.43704 4.91321C6.61519 3.34328 7.93251 2.15756 9.50047 2.15267L9.49953 1.85267ZM16.85 18.4838C16.85 19.2357 16.2447 19.8435 15.5 19.8435V20.1435C16.4122 20.1435 17.15 19.3995 17.15 18.4838H16.85ZM16.85 7.4125V18.4838H17.15V7.4125H16.85ZM15.5 6.05278C16.2447 6.05278 16.85 6.66064 16.85 7.4125H17.15C17.15 6.49678 16.4122 5.75278 15.5 5.75278V6.05278ZM3.5 6.05278H15.5V5.75278H3.5V6.05278ZM2.15 7.4125C2.15 6.66064 2.75533 6.05278 3.5 6.05278V5.75278C2.58782 5.75278 1.85 6.49678 1.85 7.4125H2.15ZM2.15 18.4838V7.4125H1.85V18.4838H2.15ZM3.5 19.8435C2.75533 19.8435 2.15 19.2357 2.15 18.4838H1.85C1.85 19.3995 2.58782 20.1435 3.5 20.1435V19.8435ZM15.5 19.8435H3.5V20.1435H15.5V19.8435Z" fill="white"/>
</svg>
