<svg width="26" height="26" viewBox="0 0 26 26" fill="none" xmlns="http://www.w3.org/2000/svg">
<path d="M22.9531 0H3.04688C1.36683 0 0 1.36683 0 3.04688V22.9531C0 24.6332 1.36683 26 3.04688 26H22.9531C24.6332 26 26 24.6332 26 22.9531V3.04688C26 1.36683 24.6332 0 22.9531 0ZM23.9688 22.9531C23.9688 23.5131 23.5131 23.9688 22.9531 23.9688H17.1641V15.6914H20.3018L20.8203 12.543H17.1641V10.3594C17.1641 9.49736 17.8255 8.83594 18.6875 8.83594H20.7695V5.6875H18.6875C16.1016 5.6875 14.0167 7.78223 14.0167 10.3682V12.543H10.9688V15.6914H14.0167V23.9688H3.04688C2.48686 23.9688 2.03125 23.5131 2.03125 22.9531V3.04688C2.03125 2.48686 2.48686 2.03125 3.04688 2.03125H22.9531C23.5131 2.03125 23.9688 2.48686 23.9688 3.04688V22.9531Z" fill="white"/>
</svg>
