<svg width="41" height="24" viewBox="0 0 41 24" fill="none" xmlns="http://www.w3.org/2000/svg">
<path fill-rule="evenodd" clip-rule="evenodd" d="M39.9997 22.0582L39.9235 16.9025C39.91 16.4001 39.4215 16 38.8224 16H38.0354C37.4634 16 37 16.3888 37 16.8684V22.1324C37 22.6121 37.4634 23 38.0354 23H38.8986C39.5165 23 40.0133 22.5745 39.9997 22.0582ZM3.99974 22.1691L3.91841 16.7959C3.90694 16.3538 3.47528 16 2.94874 16H2.03536C1.46398 16 1 16.3888 1 16.8684V22.1324C1 22.6121 1.46398 23 2.03536 23H3.03006C3.57433 23 4.01225 22.6243 3.99974 22.1691ZM40 1.87222V3.60562C40 3.8783 39.8679 4.13432 39.6423 4.29916L21.0517 17.8218C20.7261 18.0594 20.2748 18.0594 19.9492 17.8218L1.35956 4.29916C1.133 4.13432 1 3.8783 1 3.60562V1.87222C1 1.15238 1.8622 0.742921 2.46208 1.17956L19.9492 13.9008C20.2748 14.1375 20.7261 14.1375 21.0517 13.9008L38.5388 1.17956C39.1387 0.743798 40 1.15238 40 1.87222Z" fill="white"/>
<path d="M39.9235 16.9025L40.4235 16.8951L40.4234 16.889L39.9235 16.9025ZM3.91841 16.7959L4.41838 16.7884L4.41824 16.783L3.91841 16.7959ZM39.6423 4.29916L39.9364 4.7035L39.9372 4.7029L39.6423 4.29916ZM21.0517 17.8218L20.7576 17.4174L20.757 17.4179L21.0517 17.8218ZM19.9492 17.8218L20.2439 17.4179L20.2433 17.4175L19.9492 17.8218ZM1.35956 4.29916L1.06539 4.70347L1.06543 4.70349L1.35956 4.29916ZM2.46208 1.17956L2.16783 1.58381L2.16794 1.58389L2.46208 1.17956ZM19.9492 13.9008L19.6551 14.3051L19.6552 14.3052L19.9492 13.9008ZM21.0517 13.9008L21.3457 14.3052L21.3459 14.3051L21.0517 13.9008ZM38.5388 1.17956L38.245 0.775028L38.2447 0.775228L38.5388 1.17956ZM40.4997 22.0508L40.4235 16.8951L39.4236 16.9099L39.4998 22.0656L40.4997 22.0508ZM40.4234 16.889C40.4004 16.04 39.6096 15.5 38.8224 15.5V16.5C39.2334 16.5 39.4195 16.7603 39.4237 16.916L40.4234 16.889ZM38.8224 15.5H38.0354V16.5H38.8224V15.5ZM38.0354 15.5C37.2732 15.5 36.5 16.0339 36.5 16.8684H37.5C37.5 16.7437 37.6536 16.5 38.0354 16.5V15.5ZM36.5 16.8684V22.1324H37.5V16.8684H36.5ZM36.5 22.1324C36.5 22.9675 37.2739 23.5 38.0354 23.5V22.5C37.6529 22.5 37.5 22.2566 37.5 22.1324H36.5ZM38.0354 23.5H38.8986V22.5H38.0354V23.5ZM38.8986 23.5C39.7073 23.5 40.5227 22.9253 40.4996 22.045L39.4999 22.0713C39.5039 22.2237 39.3256 22.5 38.8986 22.5V23.5ZM4.49968 22.1616L4.41835 16.7884L3.41847 16.8035L3.4998 22.1767L4.49968 22.1616ZM4.41824 16.783C4.39778 15.9941 3.66357 15.5 2.94874 15.5V16.5C3.28699 16.5 3.41611 16.7136 3.41858 16.8089L4.41824 16.783ZM2.94874 15.5H2.03536V16.5H2.94874V15.5ZM2.03536 15.5C1.27395 15.5 0.5 16.0338 0.5 16.8684H1.5C1.5 16.7438 1.65402 16.5 2.03536 16.5V15.5ZM0.5 16.8684V22.1324H1.5V16.8684H0.5ZM0.5 22.1324C0.5 22.9677 1.27465 23.5 2.03536 23.5V22.5C1.65332 22.5 1.5 22.2565 1.5 22.1324H0.5ZM2.03536 23.5H3.03006V22.5H2.03536V23.5ZM3.03006 23.5C3.76566 23.5 4.52207 22.9745 4.49955 22.1554L3.49993 22.1829C3.50142 22.2372 3.47805 22.3073 3.39829 22.3756C3.31736 22.445 3.18876 22.5 3.03006 22.5V23.5ZM39.5 1.87222V3.60562H40.5V1.87222H39.5ZM39.5 3.60562C39.5 3.71403 39.4479 3.82193 39.3473 3.89541L39.9372 4.7029C40.2879 4.44671 40.5 4.04257 40.5 3.60562H39.5ZM39.3482 3.89481L20.7576 17.4174L21.3458 18.2261L39.9364 4.7035L39.3482 3.89481ZM20.757 17.4179C20.607 17.5274 20.394 17.5274 20.2439 17.4179L19.6545 18.2257C20.1557 18.5914 20.8452 18.5914 21.3464 18.2257L20.757 17.4179ZM20.2433 17.4175L1.65368 3.89482L1.06543 4.70349L19.6551 18.2261L20.2433 17.4175ZM1.65372 3.89484C1.55185 3.82073 1.5 3.71272 1.5 3.60562H0.5C0.5 4.04388 0.714146 4.44791 1.06539 4.70347L1.65372 3.89484ZM1.5 3.60562V1.87222H0.5V3.60562H1.5ZM1.5 1.87222C1.5 1.602 1.86488 1.3633 2.16783 1.58381L2.75632 0.775309C1.85952 0.122541 0.5 0.702755 0.5 1.87222H1.5ZM2.16794 1.58389L19.6551 14.3051L20.2433 13.4965L2.75621 0.775228L2.16794 1.58389ZM19.6552 14.3052C20.1561 14.6694 20.8448 14.6694 21.3457 14.3052L20.7577 13.4964C20.6074 13.6057 20.3935 13.6057 20.2432 13.4964L19.6552 14.3052ZM21.3459 14.3051L38.833 1.58389L38.2447 0.775228L20.7576 13.4965L21.3459 14.3051ZM38.8327 1.58409C39.1362 1.36365 39.5 1.60244 39.5 1.87222H40.5C40.5 0.702318 39.1413 0.123947 38.245 0.775028L38.8327 1.58409Z" fill="white"/>
</svg>
