<svg width="138" height="17" viewBox="0 0 138 17" fill="none" xmlns="http://www.w3.org/2000/svg">
<path d="M14.214 16L14.192 5.792L9.132 14.24H7.856L2.796 5.924V16H0.0680001V0.599999H2.422L8.538 10.808L14.544 0.599999H16.898L16.92 16H14.214ZM28.2737 16.22C26.7044 16.22 25.2891 15.8827 24.0277 15.208C22.7664 14.5187 21.7764 13.5727 21.0577 12.37C20.3391 11.1527 19.9797 9.796 19.9797 8.3C19.9797 6.804 20.3391 5.45467 21.0577 4.252C21.7764 3.03467 22.7664 2.08867 24.0277 1.414C25.2891 0.724666 26.7044 0.379999 28.2737 0.379999C29.8431 0.379999 31.2584 0.724666 32.5197 1.414C33.7811 2.08867 34.7711 3.02733 35.4897 4.23C36.2084 5.43267 36.5677 6.78933 36.5677 8.3C36.5677 9.81067 36.2084 11.1673 35.4897 12.37C34.7711 13.5727 33.7811 14.5187 32.5197 15.208C31.2584 15.8827 29.8431 16.22 28.2737 16.22ZM28.2737 13.712C29.3004 13.712 30.2244 13.4847 31.0457 13.03C31.8671 12.5607 32.5124 11.9153 32.9817 11.094C33.4511 10.258 33.6857 9.32667 33.6857 8.3C33.6857 7.27333 33.4511 6.34933 32.9817 5.528C32.5124 4.692 31.8671 4.04667 31.0457 3.592C30.2244 3.12267 29.3004 2.888 28.2737 2.888C27.2471 2.888 26.3231 3.12267 25.5017 3.592C24.6804 4.04667 24.0351 4.692 23.5657 5.528C23.0964 6.34933 22.8617 7.27333 22.8617 8.3C22.8617 9.32667 23.0964 10.258 23.5657 11.094C24.0351 11.9153 24.6804 12.5607 25.5017 13.03C26.3231 13.4847 27.2471 13.712 28.2737 13.712ZM53.2833 0.599999V16H50.9293L42.4373 5.572V16H39.5993V0.599999H41.9533L50.4453 11.028V0.599999H53.2833ZM64.6038 16.22C63.0345 16.22 61.6191 15.8827 60.3578 15.208C59.0965 14.5187 58.1065 13.5727 57.3878 12.37C56.6691 11.1527 56.3098 9.796 56.3098 8.3C56.3098 6.804 56.6691 5.45467 57.3878 4.252C58.1065 3.03467 59.0965 2.08867 60.3578 1.414C61.6191 0.724666 63.0345 0.379999 64.6038 0.379999C66.1731 0.379999 67.5885 0.724666 68.8498 1.414C70.1111 2.08867 71.1011 3.02733 71.8198 4.23C72.5385 5.43267 72.8978 6.78933 72.8978 8.3C72.8978 9.81067 72.5385 11.1673 71.8198 12.37C71.1011 13.5727 70.1111 14.5187 68.8498 15.208C67.5885 15.8827 66.1731 16.22 64.6038 16.22ZM64.6038 13.712C65.6305 13.712 66.5545 13.4847 67.3758 13.03C68.1971 12.5607 68.8425 11.9153 69.3118 11.094C69.7811 10.258 70.0158 9.32667 70.0158 8.3C70.0158 7.27333 69.7811 6.34933 69.3118 5.528C68.8425 4.692 68.1971 4.04667 67.3758 3.592C66.5545 3.12267 65.6305 2.888 64.6038 2.888C63.5771 2.888 62.6531 3.12267 61.8318 3.592C61.0105 4.04667 60.3651 4.692 59.8958 5.528C59.4265 6.34933 59.1918 7.27333 59.1918 8.3C59.1918 9.32667 59.4265 10.258 59.8958 11.094C60.3651 11.9153 61.0105 12.5607 61.8318 13.03C62.6531 13.4847 63.5771 13.712 64.6038 13.712ZM83.0573 16.22C81.5027 16.22 80.0947 15.8827 78.8333 15.208C77.5867 14.5187 76.604 13.5727 75.8853 12.37C75.1813 11.1673 74.8293 9.81067 74.8293 8.3C74.8293 6.78933 75.1887 5.43267 75.9073 4.23C76.626 3.02733 77.6087 2.08867 78.8553 1.414C80.1167 0.724666 81.5247 0.379999 83.0793 0.379999C84.3407 0.379999 85.492 0.599999 86.5333 1.04C87.5747 1.48 88.4547 2.118 89.1733 2.954L87.3253 4.692C86.2107 3.48933 84.8393 2.888 83.2113 2.888C82.1553 2.888 81.2093 3.12267 80.3733 3.592C79.5373 4.04667 78.8847 4.68467 78.4153 5.506C77.946 6.32733 77.7113 7.25867 77.7113 8.3C77.7113 9.34133 77.946 10.2727 78.4153 11.094C78.8847 11.9153 79.5373 12.5607 80.3733 13.03C81.2093 13.4847 82.1553 13.712 83.2113 13.712C84.8393 13.712 86.2107 13.1033 87.3253 11.886L89.1733 13.646C88.4547 14.482 87.5673 15.12 86.5113 15.56C85.47 16 84.3187 16.22 83.0573 16.22ZM101.579 12.436H93.8794L92.3614 16H89.4134L96.3434 0.599999H99.1594L106.111 16H103.119L101.579 12.436ZM100.633 10.192L97.7294 3.46L94.8474 10.192H100.633ZM112.844 16.22C111.656 16.22 110.505 16.0513 109.39 15.714C108.29 15.3767 107.417 14.9293 106.772 14.372L107.762 12.15C108.393 12.6487 109.163 13.0593 110.072 13.382C110.996 13.69 111.92 13.844 112.844 13.844C113.988 13.844 114.839 13.6607 115.396 13.294C115.968 12.9273 116.254 12.4433 116.254 11.842C116.254 11.402 116.093 11.0427 115.77 10.764C115.462 10.4707 115.066 10.2433 114.582 10.082C114.098 9.92067 113.438 9.73733 112.602 9.532C111.429 9.25333 110.475 8.97467 109.742 8.696C109.023 8.41733 108.4 7.98467 107.872 7.398C107.359 6.79667 107.102 5.99 107.102 4.978C107.102 4.12733 107.329 3.35733 107.784 2.668C108.253 1.964 108.95 1.40667 109.874 0.995999C110.813 0.585332 111.957 0.379999 113.306 0.379999C114.245 0.379999 115.169 0.497333 116.078 0.732C116.987 0.966666 117.772 1.304 118.432 1.744L117.53 3.966C116.855 3.57 116.151 3.26933 115.418 3.064C114.685 2.85867 113.973 2.756 113.284 2.756C112.155 2.756 111.311 2.94667 110.754 3.328C110.211 3.70933 109.94 4.21533 109.94 4.846C109.94 5.286 110.094 5.64533 110.402 5.924C110.725 6.20267 111.128 6.42267 111.612 6.584C112.096 6.74533 112.756 6.92867 113.592 7.134C114.736 7.398 115.675 7.67667 116.408 7.97C117.141 8.24867 117.765 8.68133 118.278 9.268C118.806 9.85467 119.07 10.6467 119.07 11.644C119.07 12.4947 118.835 13.2647 118.366 13.954C117.911 14.6433 117.215 15.1933 116.276 15.604C115.337 16.0147 114.193 16.22 112.844 16.22ZM129.1 16.22C127.531 16.22 126.115 15.8827 124.854 15.208C123.593 14.5187 122.603 13.5727 121.884 12.37C121.165 11.1527 120.806 9.796 120.806 8.3C120.806 6.804 121.165 5.45467 121.884 4.252C122.603 3.03467 123.593 2.08867 124.854 1.414C126.115 0.724666 127.531 0.379999 129.1 0.379999C130.669 0.379999 132.085 0.724666 133.346 1.414C134.607 2.08867 135.597 3.02733 136.316 4.23C137.035 5.43267 137.394 6.78933 137.394 8.3C137.394 9.81067 137.035 11.1673 136.316 12.37C135.597 13.5727 134.607 14.5187 133.346 15.208C132.085 15.8827 130.669 16.22 129.1 16.22ZM129.1 13.712C130.127 13.712 131.051 13.4847 131.872 13.03C132.693 12.5607 133.339 11.9153 133.808 11.094C134.277 10.258 134.512 9.32667 134.512 8.3C134.512 7.27333 134.277 6.34933 133.808 5.528C133.339 4.692 132.693 4.04667 131.872 3.592C131.051 3.12267 130.127 2.888 129.1 2.888C128.073 2.888 127.149 3.12267 126.328 3.592C125.507 4.04667 124.861 4.692 124.392 5.528C123.923 6.34933 123.688 7.27333 123.688 8.3C123.688 9.32667 123.923 10.258 124.392 11.094C124.861 11.9153 125.507 12.5607 126.328 13.03C127.149 13.4847 128.073 13.712 129.1 13.712Z" fill="white"/>
</svg>
